<mxfile host="app.diagrams.net" modified="2024-04-18T04:59:10.708Z" agent="Mozilla/5.0 (X11; Linux x86_64) AppleWebKit/537.36 (KHTML, like Gecko) Chrome/124.0.0.0 Safari/537.36" version="24.2.5" etag="FfVG9S8wm_k7p3QMPJRq" type="github">
  <diagram name="Page-1" id="RNRijZUeDcOZCEx71w1U">
    <mxGraphModel>
      <root>
        <mxCell id="0" />
        <mxCell id="1" parent="0" />
      </root>
    </mxGraphModel>
  </diagram>
</mxfile>
